<?xml version="1.0" encoding="UTF-8" standalone="no"?>
<!-- Generator: Adobe Illustrator 16.0.0, SVG Export Plug-In . SVG Version: 6.00 Build 0)  -->

<svg
   xmlns:dc="http://purl.org/dc/elements/1.1/"
   xmlns:cc="http://creativecommons.org/ns#"
   xmlns:rdf="http://www.w3.org/1999/02/22-rdf-syntax-ns#"
   xmlns:svg="http://www.w3.org/2000/svg"
   xmlns="http://www.w3.org/2000/svg"
   xmlns:sodipodi="http://sodipodi.sourceforge.net/DTD/sodipodi-0.dtd"
   xmlns:inkscape="http://www.inkscape.org/namespaces/inkscape"
   version="1.1"
   id="Capa_1"
   x="0px"
   y="0px"
   width="512px"
   height="512px"
   viewBox="0 0 485.213 485.212"
   style="enable-background:new 0 0 485.213 485.212;"
   xml:space="preserve"
   sodipodi:docname="onewaytrip.svg"
   inkscape:version="0.92.3 (2405546, 2018-03-11)"><metadata
   id="metadata41"><rdf:RDF><cc:Work
       rdf:about=""><dc:format>image/svg+xml</dc:format><dc:type
         rdf:resource="http://purl.org/dc/dcmitype/StillImage" /></cc:Work></rdf:RDF></metadata><defs
   id="defs39" /><sodipodi:namedview
   pagecolor="#ffffff"
   bordercolor="#666666"
   borderopacity="1"
   objecttolerance="10"
   gridtolerance="10"
   guidetolerance="10"
   inkscape:pageopacity="0"
   inkscape:pageshadow="2"
   inkscape:window-width="1600"
   inkscape:window-height="838"
   id="namedview37"
   showgrid="false"
   inkscape:zoom="0.65186406"
   inkscape:cx="-220.82947"
   inkscape:cy="250.07859"
   inkscape:window-x="-8"
   inkscape:window-y="-8"
   inkscape:window-maximized="1"
   inkscape:current-layer="Capa_1" />
<g
   id="g4"
   style="fill:#313797;fill-opacity:1">
	<path
   d="M424.562,394.237c0,62.516-94.321,90.976-181.955,90.976c-87.629,0-181.956-28.46-181.956-90.976   c0-51.711,64.562-80.049,136.465-88.343v30.771c-61.375,7.756-106.139,30.443-106.139,57.572   c0,33.491,67.864,60.649,151.629,60.649c83.751,0,151.628-27.158,151.628-60.649c0-27.129-44.775-49.816-106.139-57.572v-30.771   C359.997,314.188,424.562,342.526,424.562,394.237z M242.606,0c-58.609,0-106.139,47.532-106.139,106.141   c0,53.424,39.61,97.196,90.976,104.598v183.498h30.327V210.739c51.352-7.402,90.98-51.174,90.98-104.598   C348.75,47.532,301.215,0,242.606,0z M212.279,90.978c-16.762,0-30.324-13.565-30.324-30.327s13.562-30.324,30.324-30.324   c16.764,0,30.327,13.562,30.327,30.324S229.043,90.978,212.279,90.978z"
   fill="#1ba0e4"
   id="path2"
   style="fill:#313797;fill-opacity:1" />
</g>
<g
   id="g6"
   style="fill:#313797;fill-opacity:1">
</g>
<g
   id="g8"
   style="fill:#313797;fill-opacity:1">
</g>
<g
   id="g10"
   style="fill:#313797;fill-opacity:1">
</g>
<g
   id="g12"
   style="fill:#313797;fill-opacity:1">
</g>
<g
   id="g14"
   style="fill:#313797;fill-opacity:1">
</g>
<g
   id="g16"
   style="fill:#313797;fill-opacity:1">
</g>
<g
   id="g18"
   style="fill:#313797;fill-opacity:1">
</g>
<g
   id="g20"
   style="fill:#313797;fill-opacity:1">
</g>
<g
   id="g22"
   style="fill:#313797;fill-opacity:1">
</g>
<g
   id="g24"
   style="fill:#313797;fill-opacity:1">
</g>
<g
   id="g26"
   style="fill:#313797;fill-opacity:1">
</g>
<g
   id="g28"
   style="fill:#313797;fill-opacity:1">
</g>
<g
   id="g30"
   style="fill:#313797;fill-opacity:1">
</g>
<g
   id="g32"
   style="fill:#313797;fill-opacity:1">
</g>
<g
   id="g34"
   style="fill:#313797;fill-opacity:1">
</g>
</svg>