<?xml version="1.0" encoding="UTF-8" standalone="no"?>
<!-- Generator: Adobe Illustrator 16.0.0, SVG Export Plug-In . SVG Version: 6.00 Build 0)  -->

<svg
   xmlns:dc="http://purl.org/dc/elements/1.1/"
   xmlns:cc="http://creativecommons.org/ns#"
   xmlns:rdf="http://www.w3.org/1999/02/22-rdf-syntax-ns#"
   xmlns:svg="http://www.w3.org/2000/svg"
   xmlns="http://www.w3.org/2000/svg"
   xmlns:sodipodi="http://sodipodi.sourceforge.net/DTD/sodipodi-0.dtd"
   xmlns:inkscape="http://www.inkscape.org/namespaces/inkscape"
   version="1.1"
   id="Capa_1"
   x="0px"
   y="0px"
   width="512px"
   height="512px"
   viewBox="0 0 400.156 400.155"
   style="enable-background:new 0 0 400.156 400.155;"
   xml:space="preserve"
   sodipodi:docname="transfer.svg"
   inkscape:version="0.92.3 (2405546, 2018-03-11)"><metadata
   id="metadata41"><rdf:RDF><cc:Work
       rdf:about=""><dc:format>image/svg+xml</dc:format><dc:type
         rdf:resource="http://purl.org/dc/dcmitype/StillImage" /></cc:Work></rdf:RDF></metadata><defs
   id="defs39" /><sodipodi:namedview
   pagecolor="#ffffff"
   bordercolor="#666666"
   borderopacity="1"
   objecttolerance="10"
   gridtolerance="10"
   guidetolerance="10"
   inkscape:pageopacity="0"
   inkscape:pageshadow="2"
   inkscape:window-width="1600"
   inkscape:window-height="838"
   id="namedview37"
   showgrid="false"
   inkscape:zoom="0.4609375"
   inkscape:cx="-337.35593"
   inkscape:cy="344.94915"
   inkscape:window-x="-8"
   inkscape:window-y="-8"
   inkscape:window-maximized="1"
   inkscape:current-layer="g4" />
<g
   id="g4"
   style="fill:#ff6600;fill-opacity:1">
	<path
   d="M396.31,49.545c6.088-18.271,4.949-32.354-3.432-42.255c-9.897-8.376-23.983-9.514-42.258-3.434   c-18.273,6.091-34.643,16.368-49.111,30.833l-45.679,45.683L65.973,34.978c-3.046-0.953-5.901-0.192-8.564,2.282L20.862,73.805   c-2.091,2.096-2.95,4.665-2.568,7.71c0.571,3.049,2.19,5.33,4.854,6.854l145.038,79.656l-73.948,73.948L38.85,226.845   c-0.38-0.192-1.139-0.288-2.282-0.288c-2.666,0-4.853,0.855-6.567,2.57L2.594,256.819c-1.903,2.279-2.758,4.66-2.568,7.132   c0.378,3.045,1.615,5.235,3.711,6.57l71.946,53.957l53.959,71.944c1.714,2.098,3.999,3.329,6.854,3.716h0.571   c2.666,0,4.853-0.855,6.567-2.566l27.406-27.404c2.474-2.669,3.236-5.619,2.286-8.854l-15.133-55.388l73.947-73.953L311.8,377.019   c1.14,2.475,3.138,3.997,5.995,4.569c0.568,0.191,1.235,0.284,1.999,0.284c2.279,0,4.09-0.572,5.421-1.712l36.552-27.407   c3.23-2.663,4.373-5.801,3.426-9.418l-45.68-198.711l45.967-45.965C379.942,84.188,390.219,67.816,396.31,49.545z"
   fill="#1ba0e4"
   id="path2"
   style="fill:#313797;fill-opacity:1" />
</g>
<g
   id="g6">
</g>
<g
   id="g8">
</g>
<g
   id="g10">
</g>
<g
   id="g12">
</g>
<g
   id="g14">
</g>
<g
   id="g16">
</g>
<g
   id="g18">
</g>
<g
   id="g20">
</g>
<g
   id="g22">
</g>
<g
   id="g24">
</g>
<g
   id="g26">
</g>
<g
   id="g28">
</g>
<g
   id="g30">
</g>
<g
   id="g32">
</g>
<g
   id="g34">
</g>
</svg>